<?xml version="1.0" encoding="utf-8"?>
<!-- Generator: Adobe Illustrator 19.2.1, SVG Export Plug-In . SVG Version: 6.00 Build 0)  -->
<svg version="1.1" id="Capa_1" xmlns="http://www.w3.org/2000/svg" xmlns:xlink="http://www.w3.org/1999/xlink" x="0px" y="0px"
	 viewBox="0 0 513 189" style="enable-background:new 0 0 513 189;" xml:space="preserve">
<style type="text/css">
	.st0{fill:#FFFFFF;}
</style>
<g>
	<path class="st0" d="M84.9,136.8c3.7,0,6.7,1.5,9,4.6c2.2,3,2.7,6.3,1.5,9.8c-3,8.9-8.3,16.1-16.1,21.7c-7.8,5.8-16.5,8.6-26.2,8.6
		h-0.7c-12.4,0-22.9-4.4-31.7-13.1c-8.7-8.7-13.1-19.3-13.1-31.7V52.1c0-12.3,4.4-22.8,13.1-31.5S40,7.5,52.4,7.5h0.7
		c9.7,0,18.4,2.8,26.2,8.5c7.7,5.6,13.1,12.9,16.1,21.9c1.2,3.5,0.7,6.7-1.5,9.8c-2.3,3-5.3,4.5-9,4.5c-5.3,0-8.7-2.4-10.4-7.2
		c-1.5-4.6-4.2-8.3-8.2-11.1c-3.9-2.8-8.3-4.3-13.2-4.3h-0.7c-6.3,0-11.7,2.2-16.1,6.6s-6.6,9.7-6.6,15.9v84.6
		c0,6.3,2.2,11.7,6.6,16.1s9.8,6.6,16.1,6.6h0.7c4.9,0,9.3-1.5,13.2-4.4c3.9-2.8,6.7-6.5,8.2-11C76.1,139.2,79.6,136.8,84.9,136.8z"
		/>
	<path class="st0" d="M181.5,159.5c3.1,0,5.7,1.1,7.8,3.2c2.2,2.2,3.3,4.8,3.3,7.8c0,3.1-1.1,5.7-3.3,7.9c-2.1,2.1-4.7,3.2-7.8,3.2
		h-49.8c-3.1,0-5.7-1.1-7.9-3.2c-2.1-2.2-3.2-4.8-3.2-7.9V20.7c0-3.1,1.1-5.7,3.2-7.8c2.2-2.2,4.8-3.3,7.9-3.3c3,0,5.6,1.1,7.8,3.3
		c2.1,2.1,3.2,4.7,3.2,7.8v138.8H181.5z"/>
	<path class="st0" d="M273.6,159.5c3.1,0,5.7,1.1,7.8,3.2c2.2,2.2,3.3,4.8,3.3,7.8c0,3.1-1.1,5.7-3.3,7.9c-2.1,2.1-4.7,3.2-7.8,3.2
		h-49.8c-3.1,0-5.7-1.1-7.9-3.2c-2.1-2.2-3.2-4.8-3.2-7.9V20.7c0-3.1,1.1-5.7,3.2-7.8c2.2-2.2,4.8-3.3,7.9-3.3c3,0,5.6,1.1,7.8,3.3
		c2.1,2.1,3.2,4.7,3.2,7.8v138.8H273.6z"/>
	<path class="st0" d="M307.9,165.3c-9.1-10-13.7-21.8-13.7-35.4V18.5c0-3.1,1.1-5.7,3.2-7.9c2.2-2.1,4.8-3.2,7.9-3.2
		c3,0,5.6,1.1,7.8,3.2c2.1,2.2,3.2,4.8,3.2,7.9v111.8c0,7.2,2.3,13.6,7,19.1c4.6,5.7,10.5,8.9,17.6,9.8c8.4,1,15.8-1.3,22.2-6.9
		c6.3-5.6,9.5-12.6,9.5-21V18.5c0-3.1,1.1-5.7,3.2-7.9c2.1-2.1,4.7-3.2,7.8-3.2s5.7,1.1,7.8,3.2c2.2,2.2,3.3,4.8,3.3,7.9v112.8
		c0,14.3-5.2,26.3-15.6,36.3c-10.3,9.9-22.6,14.5-37,13.8C328.6,180.8,317.2,175.4,307.9,165.3z"/>
	<path class="st0" d="M494.3,136.8c3.7,0,6.7,1.5,9,4.6c2.2,3,2.7,6.3,1.5,9.8c-3,8.9-8.3,16.1-16.1,21.7
		c-7.8,5.8-16.5,8.6-26.2,8.6h-0.7c-12.4,0-22.9-4.4-31.7-13.1c-8.7-8.7-13.1-19.3-13.1-31.7V52.1c0-12.3,4.4-22.8,13.1-31.5
		c8.7-8.7,19.3-13.1,31.7-13.1h0.7c9.7,0,18.4,2.8,26.2,8.5c7.7,5.6,13.1,12.9,16.1,21.9c1.2,3.5,0.7,6.7-1.5,9.8
		c-2.3,3-5.3,4.5-9,4.5c-5.3,0-8.7-2.4-10.4-7.2c-1.5-4.6-4.2-8.3-8.2-11.1c-3.9-2.8-8.3-4.3-13.2-4.3h-0.7
		c-6.3,0-11.7,2.2-16.1,6.6c-4.4,4.4-6.6,9.7-6.6,15.9v84.6c0,6.3,2.2,11.7,6.6,16.1c4.4,4.4,9.8,6.6,16.1,6.6h0.7
		c4.9,0,9.3-1.5,13.2-4.4c3.9-2.8,6.7-6.5,8.2-11C485.5,139.2,489,136.8,494.3,136.8z"/>
</g>
</svg>
